HIERARCHY
ROOT Hips
{
	OFFSET 0.000000 0.000000 0.000000
	CHANNELS 6 Xposition Yposition Zposition Xrotation Yrotation Zrotation
	JOINT LeftUpLeg_virtual
	{
		OFFSET 0.000000 0.000000 0.000000
		CHANNELS 3 Xrotation Yrotation Zrotation
		JOINT LeftUpLeg
		{
			OFFSET 15.427100 -6.655098 0.678600
			CHANNELS 3 Xrotation Yrotation Zrotation
			JOINT LeftLeg
			{
				OFFSET 4.081073 -39.591068 13.024000
				CHANNELS 3 Xrotation Yrotation Zrotation
				JOINT LeftFoot
				{
					OFFSET -4.081074 -37.707932 -15.979700
					CHANNELS 3 Xrotation Yrotation Zrotation
					JOINT LeftToeBase
					{
						OFFSET 5.346399 -15.068900 20.645000
						CHANNELS 3 Xrotation Yrotation Zrotation
						JOINT LeftToe_End
						{
							OFFSET 2.754700 0.931300 11.300900
							CHANNELS 3 Xrotation Yrotation Zrotation
							End Site
							{
								OFFSET 0 0 0
							}
						}
					}
				}
			}
		}
	}
	JOINT RightUpLeg_virtual
	{
		OFFSET 0.000000 0.000000 0.000000
		CHANNELS 3 Xrotation Yrotation Zrotation
		JOINT RightUpLeg
		{
			OFFSET -15.569500 -6.655098 0.678600
			CHANNELS 3 Xrotation Yrotation Zrotation
			JOINT RightLeg
			{
				OFFSET -4.081825 -39.591045 13.023800
				CHANNELS 3 Xrotation Yrotation Zrotation
				JOINT RightFoot
				{
					OFFSET 4.081824 -37.707954 -15.979600
					CHANNELS 3 Xrotation Yrotation Zrotation
					JOINT RightToeBase
					{
						OFFSET -5.346400 -15.068900 20.645000
						CHANNELS 3 Xrotation Yrotation Zrotation
						JOINT RightToe_End
						{
							OFFSET -2.754700 0.931300 11.300900
							CHANNELS 3 Xrotation Yrotation Zrotation
							End Site
							{
								OFFSET 0 0 0
							}
						}
					}
				}
			}
		}
	}
	JOINT Spine_virtual
	{
		OFFSET 0.000000 0.000000 0.000000
		CHANNELS 3 Xrotation Yrotation Zrotation
		JOINT Spine
		{
			OFFSET -0.279200 12.230698 -2.892100
			CHANNELS 3 Xrotation Yrotation Zrotation
			JOINT Spine1
			{
				OFFSET -0.232667 10.192268 -1.242267
				CHANNELS 3 Xrotation Yrotation Zrotation
				JOINT Spine1_split
				{
					OFFSET -0.232667 10.192268 -1.242267
					CHANNELS 3 Xrotation Yrotation Zrotation
					JOINT Spine2
					{
						OFFSET -0.232667 10.192268 -1.242267
						CHANNELS 3 Xrotation Yrotation Zrotation
						JOINT Neck_virtual
						{
							OFFSET 0.000000 0.000000 0.000000
							CHANNELS 3 Xrotation Yrotation Zrotation
							JOINT Neck
							{
								OFFSET -0.418800 17.814194 8.416900
								CHANNELS 3 Xrotation Yrotation Zrotation
								JOINT Head
								{
									OFFSET 0.000000 7.031097 3.806800
									CHANNELS 3 Xrotation Yrotation Zrotation
									JOINT HeadTop_End
									{
										OFFSET 0.000000 24.646606 12.978600
										CHANNELS 3 Xrotation Yrotation Zrotation
										End Site
										{
											OFFSET 0 0 0
										}
									}
								}
							}
						}
						JOINT LeftShoulder_virtual
						{
							OFFSET 0.000000 0.000000 0.000000
							CHANNELS 3 Xrotation Yrotation Zrotation
							JOINT LeftShoulder
							{
								OFFSET 8.476499 7.247704 -3.868750
								CHANNELS 3 Xrotation Yrotation Zrotation
								JOINT LeftShoulder_split
								{
									OFFSET 8.476499 7.247704 -3.868750
									CHANNELS 3 Xrotation Yrotation Zrotation
									JOINT LeftArm
									{
										OFFSET 9.308998 -2.777710 0.208600
										CHANNELS 3 Xrotation Yrotation Zrotation
										JOINT LeftForeArm
										{
											OFFSET 29.972298 0.000000 0.000000
											CHANNELS 3 Xrotation Yrotation Zrotation
											JOINT LeftHand
											{
												OFFSET 26.026505 0.000000 0.000000
												CHANNELS 3 Xrotation Yrotation Zrotation
												End Site
												{
													OFFSET 0 0 0
												}
											}
										}
									}
								}
							}
						}
						JOINT RightShoulder_virtual
						{
							OFFSET 0.000000 0.000000 0.000000
							CHANNELS 3 Xrotation Yrotation Zrotation
							JOINT RightShoulder
							{
								OFFSET -7.570500 7.247704 -3.868750
								CHANNELS 3 Xrotation Yrotation Zrotation
								JOINT RightShoulder_split
								{
									OFFSET -7.570500 7.247704 -3.868750
									CHANNELS 3 Xrotation Yrotation Zrotation
									JOINT RightArm
									{
										OFFSET -9.308998 -2.777710 0.208500
										CHANNELS 3 Xrotation Yrotation Zrotation
										JOINT RightForeArm
										{
											OFFSET -29.972300 0.000000 0.000000
											CHANNELS 3 Xrotation Yrotation Zrotation
											JOINT RightHand
											{
												OFFSET -26.026505 0.000000 0.000000
												CHANNELS 3 Xrotation Yrotation Zrotation
												End Site
												{
													OFFSET 0 0 0
												}
											}
										}
									}
								}
							}
						}
					}
				}
			}
		}
	}
}
MOTION
Frames: 9
Frame Time: 0.03333333
0.647818 70.185257 -0.173641 0.000000 0.000000 0.000000 11.620768 6.095269 -1.087715 -50.535378 1.940909 4.116199 68.119997 7.625175 0.638131 -28.897871 7.951342 -7.429001 -3.299436 -0.308826 0.628000 0.000000 0.000000 0.000000 11.962549 5.690899 -0.976796 -47.893819 -12.144796 -5.999003 70.613918 -7.587930 -7.051456 -31.416585 -9.947844 4.811269 3.470577 1.366128 -0.162229 0.000000 0.000000 0.000000 12.048507 2.896134 -0.797188 9.060366 1.370276 1.649580 8.836758 1.913982 -0.432072 0.905655 -0.870374 0.411640 0.000000 0.000000 0.000000 9.095473 0.847437 0.113746 -10.198433 -1.265935 5.984597 -25.729668 1.642422 -7.264323 0.000000 0.000000 0.000000 9.259582 0.533949 0.000596 3.347705 -24.499911 3.750240 -2.660217 0.409122 -3.369887 -62.542560 -24.875443 -65.029302 177.468313 -72.539744 175.789658 0.000000 0.000000 0.000000 8.364071 0.629465 0.236396 -0.012945 12.092671 10.968986 0.751069 7.003425 0.476025 -63.128467 31.605416 50.749545 -178.893555 70.196129 178.155185 0.000000 0.000000 0.000000 
0.643192 70.183434 -0.175491 0.000000 0.000000 0.000000 11.602416 6.075749 -1.076930 -50.529316 1.960506 4.123673 68.139955 7.626895 0.644630 -28.898708 7.960006 -7.441379 -3.299750 -0.308810 0.621408 0.000000 0.000000 0.000000 11.944514 5.669431 -0.966292 -47.888324 -12.134579 -5.993377 70.615693 -7.577183 -7.057169 -31.427978 -9.948416 4.800462 3.469557 1.366602 -0.162999 0.000000 0.000000 0.000000 12.035224 2.881240 -0.790580 9.061040 1.354301 1.659347 8.855633 1.897721 -0.425870 0.903275 -0.867543 0.411093 0.000000 0.000000 0.000000 9.114502 0.828740 0.119585 -10.200257 -1.246337 5.968052 -25.743338 1.711515 -7.283873 0.000000 0.000000 0.000000 9.282750 0.517029 0.006228 3.347454 -24.508831 3.748864 -2.663601 0.425155 -3.348961 -62.562948 -24.821611 -65.047143 177.463314 -72.582658 175.801037 0.000000 0.000000 0.000000 8.387792 0.612401 0.241609 -0.019354 12.137098 10.940253 0.735225 6.988780 0.467090 -63.154764 31.568103 50.731162 -178.913035 70.256589 178.181850 0.000000 0.000000 0.000000 
0.639279 70.179932 -0.177094 0.000000 0.000000 0.000000 11.580168 6.062222 -1.070932 -50.526201 1.976143 4.134131 68.164147 7.628526 0.652600 -28.898599 7.971951 -7.453201 -3.300922 -0.308122 0.613324 0.000000 0.000000 0.000000 11.924676 5.646852 -0.959136 -47.881422 -12.127675 -5.982389 70.621315 -7.569689 -7.062418 -31.438124 -9.948161 4.787274 3.467908 1.367135 -0.163571 0.000000 0.000000 0.000000 12.019080 2.862852 -0.785131 9.063235 1.342427 1.669052 8.871035 1.885580 -0.419773 0.894529 -0.857275 0.408854 0.000000 0.000000 0.000000 9.126125 0.813904 0.125276 -10.197971 -1.228151 5.954024 -25.746926 1.769370 -7.296911 0.000000 0.000000 0.000000 9.303024 0.502886 0.012391 3.346561 -24.512152 3.742548 -2.679968 0.429146 -3.337304 -62.600603 -24.760786 -65.049117 177.458765 -72.633338 175.810886 0.000000 0.000000 0.000000 8.406141 0.598313 0.247479 -0.025938 12.177264 10.913628 0.725020 6.979234 0.463745 -63.207930 31.510432 50.738675 -178.914879 70.316278 178.186644 0.000000 0.000000 0.000000 
0.635681 70.174515 -0.177044 0.000000 0.000000 0.000000 11.555118 6.052923 -1.065670 -50.521594 1.987465 4.139579 68.187063 7.630530 0.662132 -28.900146 7.986517 -7.465622 -3.304184 -0.307461 0.607249 0.000000 0.000000 0.000000 11.901584 5.623530 -0.951311 -47.872888 -12.122860 -5.971095 70.633985 -7.564512 -7.067760 -31.445812 -9.946075 4.775725 3.465202 1.367819 -0.163978 0.000000 0.000000 0.000000 11.998655 2.840267 -0.776199 9.065334 1.334294 1.676552 8.881213 1.877509 -0.414116 0.882002 -0.847429 0.408277 0.000000 0.000000 0.000000 9.132622 0.804311 0.130346 -10.186058 -1.214203 5.940373 -25.746931 1.800902 -7.301286 0.000000 0.000000 0.000000 9.318661 0.492919 0.018951 3.344685 -24.506582 3.738072 -2.697640 0.416165 -3.340474 -62.641543 -24.711247 -65.027308 177.459967 -72.628113 175.820763 0.000000 0.000000 0.000000 8.417760 0.588618 0.253519 -0.032031 12.205998 10.884910 0.725262 6.982555 0.471780 -63.269907 31.444077 50.780892 -178.908882 70.321743 178.181071 0.000000 0.000000 0.000000 
0.631884 70.168076 -0.173668 0.000000 0.000000 0.000000 11.528681 6.045878 -1.057349 -50.510625 1.996042 4.134741 68.204678 7.632761 0.673132 -28.904305 8.002236 -7.479155 -3.309346 -0.307380 0.605712 0.000000 0.000000 0.000000 11.875869 5.603306 -0.940015 -47.863596 -12.118763 -5.964544 70.654175 -7.560038 -7.075055 -31.451440 -9.941862 4.770802 3.461813 1.368756 -0.164153 0.000000 0.000000 0.000000 11.974245 2.817321 -0.762776 9.066229 1.328558 1.679411 8.886355 1.873131 -0.409705 0.875394 -0.838009 0.408383 0.000000 0.000000 0.000000 9.135431 0.800383 0.134778 -10.166327 -1.206644 5.925882 -25.749794 1.801843 -7.297196 0.000000 0.000000 0.000000 9.328526 0.487949 0.025536 3.343001 -24.495157 3.740213 -2.708120 0.395783 -3.353058 -62.666624 -24.684251 -64.979981 177.462398 -72.547373 175.823467 0.000000 0.000000 0.000000 8.422855 0.583421 0.258975 -0.036581 12.222253 10.854526 0.730497 6.990008 0.487376 -63.328189 31.387035 50.849956 -178.898910 70.263563 178.171263 0.000000 0.000000 0.000000 
0.627999 70.161270 -0.168518 0.000000 0.000000 0.000000 11.503671 6.038239 -1.044430 -50.491282 2.003554 4.118377 68.216084 7.636111 0.684551 -28.910548 8.018188 -7.492474 -3.313998 -0.308027 0.608015 0.000000 0.000000 0.000000 11.849475 5.587039 -0.924652 -47.854409 -12.113767 -5.964575 70.679720 -7.555944 -7.085242 -31.457075 -9.936185 4.773161 3.458885 1.369874 -0.164055 0.000000 0.000000 0.000000 11.948942 2.798949 -0.745836 9.066794 1.324060 1.677596 8.887685 1.871532 -0.406895 0.875057 -0.830040 0.406564 0.000000 0.000000 0.000000 9.137162 0.801491 0.138231 -10.144028 -1.206082 5.913164 -25.762886 1.774737 -7.289404 0.000000 0.000000 0.000000 9.333174 0.487517 0.030476 3.341575 -24.484606 3.748567 -2.703606 0.382864 -3.368596 -62.666016 -24.676027 -64.914350 177.467207 -72.417279 175.819670 0.000000 0.000000 0.000000 8.423730 0.583270 0.263021 -0.040075 12.227477 10.823615 0.748793 7.002996 0.500813 -63.377482 31.352481 50.927407 -178.891479 70.178145 178.164146 0.000000 0.000000 0.000000 
0.623566 70.155708 -0.162121 0.000000 0.000000 0.000000 11.481866 6.030457 -1.027856 -50.466854 2.010818 4.093356 68.222252 7.641277 0.695675 -28.917204 8.033946 -7.504188 -3.315888 -0.308596 0.610835 0.000000 0.000000 0.000000 11.825998 5.578015 -0.907011 -47.846114 -12.108534 -5.971355 70.707600 -7.553219 -7.098301 -31.465452 -9.930416 4.779649 3.457369 1.371147 -0.163264 0.000000 0.000000 0.000000 11.926049 2.787977 -0.728219 9.067878 1.320093 1.672463 8.886251 1.872107 -0.405724 0.883829 -0.827051 0.405881 0.000000 0.000000 0.000000 9.139071 0.805452 0.140315 -10.127713 -1.211777 5.904786 -25.787220 1.732219 -7.282234 0.000000 0.000000 0.000000 9.334794 0.490027 0.032647 3.340834 -24.477675 3.761861 -2.682226 0.383127 -3.378725 -62.652471 -24.677537 -64.847940 177.468027 -72.285859 175.807621 0.000000 0.000000 0.000000 8.423650 0.587153 0.264731 -0.042555 12.226819 10.797251 0.771160 7.012709 0.500580 -63.423415 31.351504 50.992789 -178.885182 70.118449 178.157111 0.000000 0.000000 0.000000 
0.618597 70.151207 -0.158268 0.000000 0.000000 0.000000 11.464385 6.024578 -1.011064 -50.442651 2.017367 4.065177 68.224895 7.647124 0.707091 -28.922948 8.047325 -7.514434 -3.314371 -0.308699 0.611678 0.000000 0.000000 0.000000 11.809268 5.578348 -0.890845 -47.841623 -12.102648 -5.982056 70.734689 -7.553450 -7.113029 -31.478057 -9.926861 4.786065 3.459019 1.372217 -0.161788 0.000000 0.000000 0.000000 11.908243 2.787009 -0.713975 9.071667 1.316769 1.665853 8.883524 1.874411 -0.405992 0.897325 -0.827872 0.406232 0.000000 0.000000 0.000000 9.141510 0.810280 0.141430 -10.124981 -1.221146 5.904958 -25.818334 1.689402 -7.280440 0.000000 0.000000 0.000000 9.334035 0.493926 0.032006 3.340411 -24.477976 3.772422 -2.652938 0.397506 -3.378092 -62.645150 -24.672028 -64.799425 177.460691 -72.207449 175.786653 0.000000 0.000000 0.000000 8.423755 0.592605 0.264402 -0.043923 12.224772 10.784385 0.791774 7.014202 0.488007 -63.474007 31.390702 51.033148 -178.869923 70.132464 178.138710 0.000000 0.000000 0.000000 
0.613076 70.147499 -0.159676 0.000000 0.000000 0.000000 11.452659 6.022756 -0.997627 -50.425466 2.021346 4.040536 68.225728 7.651991 0.718533 -28.925793 8.055581 -7.524752 -3.310142 -0.307978 0.608700 0.000000 0.000000 0.000000 11.800794 5.589338 -0.879456 -47.842723 -12.096651 -5.993260 70.759059 -7.557526 -7.126906 -31.494904 -9.926740 4.788421 3.465164 1.372692 -0.159556 0.000000 0.000000 0.000000 11.896890 2.794499 -0.705020 9.079032 1.314509 1.659841 8.880229 1.877167 -0.406831 0.910608 -0.832296 0.405896 0.000000 0.000000 0.000000 9.145464 0.814152 0.141206 -10.138563 -1.231089 5.914470 -25.847785 1.658463 -7.287119 0.000000 0.000000 0.000000 9.331883 0.497440 0.029463 3.338570 -24.482688 3.774255 -2.628337 0.414496 -3.370592 -62.661692 -24.648372 -64.778013 177.451224 -72.204430 175.767583 0.000000 0.000000 0.000000 8.424943 0.597467 0.262902 -0.044917 12.222669 10.791180 0.810843 7.013094 0.466810 -63.527897 31.464400 51.051399 -178.846577 70.235006 178.108876 0.000000 0.000000 0.000000 
